<?xml version="1.0" standalone="no"?>
<!DOCTYPE svg PUBLIC "-//W3C//DTD SVG 20010904//EN"
 "http://www.w3.org/TR/2001/REC-SVG-20010904/DTD/svg10.dtd">
<svg version="1.0" xmlns="http://www.w3.org/2000/svg"
 width="2135.245306pt" height="240.719156pt" viewBox="0 0 2135.245306 240.719156"
 preserveAspectRatio="xMidYMid meet">
<metadata>
Created by potrace 1.16, written by Peter Selinger 2001-2019
</metadata>
<g transform="translate(-0.372270,240.892518) scale(0.100000,-0.100000)"
fill="#000000" stroke="none">
<path d="M12255 2403 c-134 -30 -196 -54 -275 -107 -104 -69 -201 -186 -242
-291 -9 -22 -23 -77 -33 -123 -14 -69 -15 -95 -5 -160 24 -166 67 -256 175
-364 77 -78 159 -130 355 -228 275 -136 302 -150 388 -208 95 -63 151 -122
188 -198 35 -72 45 -221 20 -309 -57 -198 -219 -314 -437 -315 -204 0 -350 84
-488 284 -65 94 -104 187 -138 333 -26 107 -43 137 -65 115 -4 -4 -7 -159 -6
-343 l3 -334 115 -38 c284 -93 452 -123 624 -113 178 12 321 65 453 171 132
105 207 245 234 436 18 127 -2 245 -65 374 -38 77 -57 104 -118 159 -95 89
-186 144 -463 281 -246 121 -313 161 -387 233 -108 104 -145 253 -98 392 40
119 114 195 236 242 49 19 77 23 169 22 96 -1 117 -4 169 -27 84 -38 150 -90
211 -166 67 -84 105 -163 140 -293 15 -57 29 -109 31 -115 6 -23 44 -14 54 12
9 23 4 475 -5 520 -3 13 -21 26 -52 38 -276 105 -373 128 -548 126 -66 -1
-129 -3 -140 -6z"/>
<path d="M20074 2394 c-218 -47 -375 -135 -535 -297 -69 -70 -168 -206 -206
-282 -41 -81 -94 -238 -114 -337 -48 -240 -31 -504 47 -718 70 -196 142 -316
263 -443 129 -135 237 -207 389 -259 263 -89 566 -72 802 47 158 79 306 207
411 355 212 298 280 715 180 1103 -39 150 -81 251 -146 352 -163 253 -412 429
-675 479 -100 19 -328 19 -416 0z m367 -109 c59 -20 150 -74 204 -122 59 -53
143 -173 183 -263 91 -204 123 -372 127 -655 4 -233 -4 -320 -41 -475 -78
-323 -239 -550 -444 -629 -315 -121 -631 58 -780 441 -79 203 -105 387 -97
697 5 229 18 311 72 489 80 260 234 447 420 513 118 41 240 43 356 4z"/>
<path d="M6662 2383 c-5 -10 -55 -135 -112 -278 -110 -280 -454 -1138 -488
-1220 -12 -27 -51 -124 -88 -215 -116 -286 -173 -398 -233 -453 -53 -50 -144
-97 -185 -97 -28 0 -51 -24 -42 -45 8 -23 627 -23 646 0 17 20 -3 45 -37 45
-33 0 -100 36 -117 63 -48 73 -23 169 84 329 45 68 241 252 300 281 l55 28
275 -3 275 -3 13 -27 c7 -15 40 -98 74 -185 140 -365 146 -388 107 -436 -19
-25 -64 -44 -119 -49 -19 -2 -25 -9 -25 -28 l0 -25 398 -3 c349 -2 398 0 403
13 8 21 -14 45 -40 45 -36 0 -125 58 -157 103 -18 23 -45 71 -61 107 -16 36
-37 83 -47 105 -10 22 -76 184 -145 360 -70 176 -161 403 -203 505 -42 102
-93 230 -113 285 -21 55 -86 219 -144 365 -59 146 -120 300 -136 344 -16 43
-35 85 -41 92 -17 21 -86 18 -97 -3z m-24 -638 c85 -217 143 -367 162 -420 10
-27 48 -126 84 -219 36 -93 66 -171 66 -172 0 -1 -114 -4 -252 -6 l-253 -3
-65 -34 c-106 -55 -224 -155 -283 -240 -23 -35 -32 -20 -11 20 9 18 45 105 79
194 34 88 102 257 150 375 48 118 96 238 106 267 9 29 24 67 32 85 28 62 94
223 108 260 7 21 16 35 19 30 4 -4 30 -65 58 -137z"/>
<path d="M17 2354 c-4 -4 -7 -15 -7 -25 0 -13 13 -20 51 -28 67 -15 102 -41
125 -93 18 -41 19 -90 22 -938 3 -953 0 -1031 -41 -1081 -25 -30 -67 -53 -114
-63 -42 -9 -60 -31 -43 -51 19 -23 751 -22 770 1 19 22 -2 38 -74 59 -65 18
-100 49 -118 104 -14 44 -24 751 -11 802 l9 34 255 6 c140 4 283 12 319 19
383 72 610 310 610 640 0 231 -123 433 -322 529 -46 22 -117 50 -158 63 -74
22 -86 22 -670 26 -328 1 -599 0 -603 -4z m1016 -99 c91 -24 148 -55 207 -115
98 -98 137 -198 147 -376 11 -185 -42 -342 -150 -448 -114 -112 -195 -136
-454 -136 -181 0 -183 0 -198 24 -14 21 -16 84 -13 528 2 410 6 508 17 521 12
15 39 17 200 17 133 0 203 -4 244 -15z"/>
<path d="M1727 2354 c-17 -17 -6 -44 21 -50 88 -19 128 -48 153 -109 9 -22 13
-254 17 -922 5 -997 3 -1038 -50 -1092 -27 -27 -106 -61 -144 -61 -18 0 -26
-30 -13 -46 9 -11 78 -14 369 -14 197 0 365 3 374 6 19 7 21 38 4 52 -7 5 -34
13 -60 16 -63 9 -94 36 -113 98 -12 43 -15 124 -15 469 0 230 3 424 6 433 5
12 21 16 69 16 74 0 80 -6 161 -137 256 -418 509 -797 568 -851 23 -21 69 -52
101 -68 l60 -29 540 0 540 0 0 25 c0 21 -6 25 -43 32 -84 14 -125 50 -142 124
-14 60 -13 1860 1 1926 13 60 58 113 105 123 16 3 36 10 44 14 19 10 88 -16
123 -48 44 -40 66 -86 147 -316 15 -44 43 -118 60 -165 18 -47 54 -148 80
-225 27 -77 71 -203 98 -280 73 -203 141 -396 212 -595 34 -96 74 -209 90
-250 16 -41 52 -146 81 -232 53 -158 53 -158 87 -164 42 -8 78 8 87 38 9 31
81 227 112 308 14 36 39 101 55 145 45 121 79 212 158 420 97 255 190 504 200
535 5 14 22 61 38 105 195 518 219 573 276 633 35 38 97 76 139 86 22 5 28 12
25 29 l-3 22 -250 0 c-236 0 -250 -1 -250 -18 0 -14 14 -24 50 -35 103 -35
121 -122 61 -298 -46 -133 -168 -466 -196 -534 -20 -51 -128 -334 -237 -625
-25 -66 -55 -148 -66 -182 -12 -35 -26 -62 -30 -60 -5 1 -20 34 -34 72 -72
202 -143 403 -213 605 -43 124 -107 306 -143 405 -195 543 -198 571 -67 614
41 14 55 23 55 37 0 18 -20 19 -714 21 -507 2 -718 0 -727 -8 -21 -18 1 -49
35 -49 40 0 93 -39 116 -85 19 -39 20 -63 23 -955 3 -998 2 -1032 -48 -1082
-38 -38 -74 -45 -128 -24 -98 36 -166 108 -343 364 -302 437 -433 641 -416
647 6 2 41 9 76 15 148 26 299 107 401 217 131 140 179 336 130 527 -53 209
-210 348 -465 414 -50 13 -160 16 -645 19 -322 2 -589 1 -593 -3z m1052 -113
c140 -57 242 -175 277 -319 18 -78 18 -240 -2 -316 -34 -132 -123 -245 -240
-304 -101 -51 -178 -64 -357 -60 -144 3 -160 5 -173 23 -22 29 -16 963 6 989
13 16 33 18 225 13 187 -4 216 -6 264 -26z"/>
<path d="M7426 2344 c-9 -25 -29 -590 -22 -620 7 -28 33 -30 47 -4 4 8 16 54
27 101 43 187 147 336 275 395 101 46 286 71 315 42 9 -9 12 -241 12 -983 0
-1068 1 -1053 -59 -1107 -17 -15 -49 -32 -73 -38 -60 -16 -73 -24 -73 -46 0
-18 15 -19 376 -22 324 -2 378 0 389 13 19 23 5 42 -37 47 -91 13 -136 49
-154 125 -15 62 -14 1990 1 2008 9 11 33 15 80 15 97 0 165 -15 246 -55 82
-40 164 -121 211 -207 25 -47 67 -171 91 -268 6 -25 14 -35 28 -35 18 0 19 10
19 310 0 171 -3 318 -7 328 -7 16 -57 17 -847 17 -765 0 -839 -1 -845 -16z"/>
<path d="M9164 2345 c-11 -28 4 -42 49 -47 56 -7 99 -36 123 -85 18 -36 19
-81 22 -908 3 -900 -2 -1049 -35 -1107 -21 -35 -77 -66 -136 -76 -36 -7 -42
-11 -42 -32 l0 -25 814 -3 c453 -1 819 2 824 7 10 10 39 377 41 531 1 92 -2
115 -13 115 -17 0 -21 -8 -67 -133 -96 -266 -253 -394 -517 -422 -50 -5 -174
-10 -273 -10 -216 0 -219 1 -234 95 -6 33 -10 252 -10 486 0 336 3 429 13 443
12 17 28 18 168 14 176 -5 216 -17 293 -88 50 -46 78 -105 98 -205 12 -57 18
-71 35 -73 32 -5 34 31 32 428 -1 268 -4 364 -14 376 -22 31 -41 9 -54 -64
-16 -91 -60 -165 -124 -208 -71 -49 -106 -57 -273 -61 -125 -4 -152 -2 -163
10 -9 12 -11 117 -9 470 3 431 4 456 22 476 18 20 28 21 240 21 269 0 339 -9
431 -54 140 -69 231 -194 280 -385 25 -98 35 -118 56 -106 9 6 10 58 4 229 -4
122 -10 262 -14 311 l-6 90 -778 3 c-685 2 -778 0 -783 -13z"/>
<path d="M13075 2351 c-11 -19 -24 -221 -27 -431 l-3 -215 24 0 c22 0 26 8 51
107 32 125 43 153 88 230 41 69 113 138 178 171 63 31 176 57 254 57 56 0 61
-2 71 -27 10 -28 10 -1555 -1 -1849 -5 -158 -6 -162 -34 -199 -29 -38 -75 -63
-133 -72 -42 -7 -60 -27 -43 -48 11 -13 67 -15 392 -15 l379 0 -3 27 c-3 24
-9 29 -45 35 -54 9 -99 33 -115 61 -37 66 -38 78 -38 1085 l0 982 28 11 c19 8
57 8 128 1 80 -8 115 -17 167 -42 75 -36 158 -118 207 -203 33 -56 90 -223 90
-260 0 -34 22 -59 44 -51 17 6 17 22 10 303 -4 163 -7 303 -7 311 1 41 13 40
-838 40 -497 0 -820 -4 -824 -9z"/>
<path d="M14773 2344 c-9 -25 4 -39 49 -51 57 -15 94 -50 109 -104 10 -34 13
-224 13 -809 1 -829 0 -804 58 -953 59 -149 151 -259 274 -324 234 -125 579
-134 808 -22 94 46 151 92 212 175 60 82 94 155 126 274 20 71 21 114 28 845
5 559 10 780 19 807 16 51 54 93 100 111 34 14 45 14 91 2 29 -8 63 -24 76
-36 54 -51 54 -46 54 -1038 0 -1009 0 -999 -59 -1053 -28 -25 -50 -33 -134
-52 -22 -5 -28 -12 -25 -29 l3 -22 525 0 c519 0 526 0 625 24 245 58 441 182
593 374 98 123 186 318 218 482 26 129 26 450 1 555 -57 241 -142 406 -286
553 -140 145 -293 227 -526 284 -83 21 -1078 31 -1101 12 -11 -9 -18 -9 -26
-1 -15 15 -396 16 -418 2 -22 -14 -2 -39 44 -55 53 -19 92 -59 113 -119 17
-47 18 -106 18 -756 0 -643 -2 -713 -18 -795 -35 -173 -136 -327 -264 -402
-197 -115 -465 -88 -623 62 -74 71 -115 152 -141 279 -19 92 -19 133 -17 854
l3 757 23 43 c22 42 40 54 135 91 19 7 27 17 25 29 -3 16 -30 17 -351 19 -295
2 -349 0 -354 -13z m2761 -89 c260 -55 440 -209 549 -469 165 -394 130 -959
-79 -1293 -70 -111 -218 -244 -320 -288 -105 -45 -164 -55 -337 -55 l-168 0
-17 38 c-16 34 -17 116 -16 1045 2 781 5 1011 14 1022 17 21 277 21 374 0z"/>
<path d="M18514 2345 c-10 -24 4 -45 28 -45 36 -1 105 -36 123 -64 9 -14 21
-43 27 -63 12 -46 10 -1866 -2 -1931 -12 -66 -78 -122 -145 -122 -27 0 -49
-24 -41 -45 5 -13 51 -15 373 -13 l368 3 0 24 c0 20 -8 26 -55 37 -79 20 -112
60 -127 156 -19 115 -12 1838 7 1896 20 63 57 98 124 117 49 14 57 20 54 38
l-3 22 -363 3 c-316 2 -363 0 -368 -13z"/>
</g>
</svg>
